<?xml version="1.0" encoding="UTF-8" standalone="no"?>
<!DOCTYPE svg PUBLIC "-//W3C//DTD SVG 1.1//EN"
 "http://www.w3.org/Graphics/SVG/1.1/DTD/svg11.dtd">
<!-- Generated by graphviz version 2.38.0 (20140413.2041)
 -->
<!-- Title: G Pages: 1 -->
<svg width="503pt" height="928pt"
 viewBox="0.00 0.00 502.77 928.00" xmlns="http://www.w3.org/2000/svg" xmlns:xlink="http://www.w3.org/1999/xlink">
<g id="graph0" class="graph" transform="scale(1 1) rotate(0) translate(4 924)">
<title>G</title>
<polygon fill="white" stroke="none" points="-4,4 -4,-924 498.773,-924 498.773,4 -4,4"/>
<g id="clust1" class="cluster"><title>cluster_Global</title>
<path fill="none" stroke="gray" d="M109.386,-98C109.386,-98 474.773,-98 474.773,-98 480.773,-98 486.773,-104 486.773,-110 486.773,-110 486.773,-900 486.773,-900 486.773,-906 480.773,-912 474.773,-912 474.773,-912 109.386,-912 109.386,-912 103.386,-912 97.3864,-906 97.3864,-900 97.3864,-900 97.3864,-110 97.3864,-110 97.3864,-104 103.386,-98 109.386,-98"/>
<text text-anchor="middle" x="292.08" y="-899.2" font-family="Times,serif" font-size="11.00" fill="gray">Global</text>
</g>
<g id="clust2" class="cluster"><title>cluster_\nicklas</title>
<path fill="none" stroke="gray" d="M117.386,-106C117.386,-106 466.773,-106 466.773,-106 472.773,-106 478.773,-112 478.773,-118 478.773,-118 478.773,-872 478.773,-872 478.773,-878 472.773,-884 466.773,-884 466.773,-884 117.386,-884 117.386,-884 111.386,-884 105.386,-878 105.386,-872 105.386,-872 105.386,-118 105.386,-118 105.386,-112 111.386,-106 117.386,-106"/>
<text text-anchor="middle" x="292.08" y="-871.2" font-family="Times,serif" font-size="11.00" fill="gray">nicklas</text>
</g>
<g id="clust3" class="cluster"><title>cluster_\nicklas\Connect</title>
<path fill="none" stroke="gray" d="M125.386,-514C125.386,-514 448.773,-514 448.773,-514 454.773,-514 460.773,-520 460.773,-526 460.773,-526 460.773,-844 460.773,-844 460.773,-850 454.773,-856 448.773,-856 448.773,-856 125.386,-856 125.386,-856 119.386,-856 113.386,-850 113.386,-844 113.386,-844 113.386,-526 113.386,-526 113.386,-520 119.386,-514 125.386,-514"/>
<text text-anchor="middle" x="287.08" y="-843.2" font-family="Times,serif" font-size="11.00" fill="gray">Connect</text>
</g>
<g id="clust4" class="cluster"><title>cluster_\nicklas\Navbar</title>
<path fill="none" stroke="gray" d="M396.273,-434C396.273,-434 445.273,-434 445.273,-434 451.273,-434 457.273,-440 457.273,-446 457.273,-446 457.273,-494 457.273,-494 457.273,-500 451.273,-506 445.273,-506 445.273,-506 396.273,-506 396.273,-506 390.273,-506 384.273,-500 384.273,-494 384.273,-494 384.273,-446 384.273,-446 384.273,-440 390.273,-434 396.273,-434"/>
<text text-anchor="middle" x="420.773" y="-493.2" font-family="Times,serif" font-size="11.00" fill="gray">Navbar</text>
</g>
<g id="clust5" class="cluster"><title>cluster_\nicklas\Textfilter</title>
<path fill="none" stroke="gray" d="M382.773,-354C382.773,-354 458.773,-354 458.773,-354 464.773,-354 470.773,-360 470.773,-366 470.773,-366 470.773,-414 470.773,-414 470.773,-420 464.773,-426 458.773,-426 458.773,-426 382.773,-426 382.773,-426 376.773,-426 370.773,-420 370.773,-414 370.773,-414 370.773,-366 370.773,-366 370.773,-360 376.773,-354 382.773,-354"/>
<text text-anchor="middle" x="420.773" y="-413.2" font-family="Times,serif" font-size="11.00" fill="gray">Textfilter</text>
</g>
<g id="clust6" class="cluster"><title>cluster_\nicklas\Session</title>
<path fill="none" stroke="gray" d="M392.773,-274C392.773,-274 448.773,-274 448.773,-274 454.773,-274 460.773,-280 460.773,-286 460.773,-286 460.773,-334 460.773,-334 460.773,-340 454.773,-346 448.773,-346 448.773,-346 392.773,-346 392.773,-346 386.773,-346 380.773,-340 380.773,-334 380.773,-334 380.773,-286 380.773,-286 380.773,-280 386.773,-274 392.773,-274"/>
<text text-anchor="middle" x="420.773" y="-333.2" font-family="Times,serif" font-size="11.00" fill="gray">Session</text>
</g>
<g id="clust7" class="cluster"><title>cluster_\nicklas\App</title>
<path fill="none" stroke="gray" d="M397.773,-194C397.773,-194 443.773,-194 443.773,-194 449.773,-194 455.773,-200 455.773,-206 455.773,-206 455.773,-254 455.773,-254 455.773,-260 449.773,-266 443.773,-266 443.773,-266 397.773,-266 397.773,-266 391.773,-266 385.773,-260 385.773,-254 385.773,-254 385.773,-206 385.773,-206 385.773,-200 391.773,-194 397.773,-194"/>
<text text-anchor="middle" x="420.773" y="-253.2" font-family="Times,serif" font-size="11.00" fill="gray">App</text>
</g>
<g id="clust8" class="cluster"><title>cluster_\nicklas\Calendar</title>
<path fill="none" stroke="gray" d="M389.273,-114C389.273,-114 452.273,-114 452.273,-114 458.273,-114 464.273,-120 464.273,-126 464.273,-126 464.273,-174 464.273,-174 464.273,-180 458.273,-186 452.273,-186 452.273,-186 389.273,-186 389.273,-186 383.273,-186 377.273,-180 377.273,-174 377.273,-174 377.273,-126 377.273,-126 377.273,-120 383.273,-114 389.273,-114"/>
<text text-anchor="middle" x="420.773" y="-173.2" font-family="Times,serif" font-size="11.00" fill="gray">Calendar</text>
</g>
<!-- \\nicklas\\Connect\\Blog -->
<g id="node1" class="node"><title>\\nicklas\\Connect\\Blog</title>
<polygon fill="none" stroke="black" points="447.773,-828 393.773,-828 393.773,-792 447.773,-792 447.773,-828"/>
<text text-anchor="middle" x="420.773" y="-807.2" font-family="Courier,monospace" font-size="11.00">Blog</text>
</g>
<!-- \\nicklas\\Connect\\Connect -->
<g id="node5" class="node"><title>\\nicklas\\Connect\\Connect</title>
<polygon fill="none" stroke="black" points="185.386,-693 121.386,-693 121.386,-657 185.386,-657 185.386,-693"/>
<text text-anchor="middle" x="153.386" y="-672.2" font-family="Courier,monospace" font-size="11.00">Connect</text>
</g>
<!-- \\nicklas\\Connect\\Blog&#45;&gt;\\nicklas\\Connect\\Connect -->
<g id="edge1" class="edge"><title>\\nicklas\\Connect\\Blog&#45;&gt;\\nicklas\\Connect\\Connect</title>
<path fill="none" stroke="black" d="M393.356,-796.562C346.756,-772.857 249.69,-723.48 194.684,-695.499"/>
<polygon fill="none" stroke="black" points="196.077,-692.281 185.577,-690.867 192.903,-698.52 196.077,-692.281"/>
</g>
<!-- \\Anax\\Common\\AppInjectableInterface -->
<g id="node13" class="node"><title>\\Anax\\Common\\AppInjectableInterface</title>
<ellipse fill="none" stroke="black" cx="153.386" cy="-72" rx="153.273" ry="18"/>
<text text-anchor="middle" x="153.386" y="-68.3" font-family="Times,serif" font-size="14.00" fill="gray">\Anax\Common\AppInjectableInterface</text>
</g>
<!-- \\nicklas\\Connect\\Blog&#45;&gt;\\Anax\\Common\\AppInjectableInterface -->
<g id="edge2" class="edge"><title>\\nicklas\\Connect\\Blog&#45;&gt;\\Anax\\Common\\AppInjectableInterface</title>
<path fill="none" stroke="black" stroke-dasharray="1,5" d="M393.644,-800.636C385.227,-796.436 376.582,-790.662 370.773,-783 295.48,-683.693 341.518,-629.681 306.773,-510 261.082,-352.614 191.709,-168.599 165.201,-99.8034"/>
<polygon fill="none" stroke="black" points="168.336,-98.205 161.467,-90.1387 161.806,-100.728 168.336,-98.205"/>
</g>
<!-- \\Anax\\Common\\ConfigureInterface -->
<g id="node14" class="node"><title>\\Anax\\Common\\ConfigureInterface</title>
<ellipse fill="none" stroke="black" cx="153.386" cy="-18" rx="139.175" ry="18"/>
<text text-anchor="middle" x="153.386" y="-14.3" font-family="Times,serif" font-size="14.00" fill="gray">\Anax\Common\ConfigureInterface</text>
</g>
<!-- \\nicklas\\Connect\\Blog&#45;&gt;\\Anax\\Common\\ConfigureInterface -->
<g id="edge3" class="edge"><title>\\nicklas\\Connect\\Blog&#45;&gt;\\Anax\\Common\\ConfigureInterface</title>
<path fill="none" stroke="black" stroke-dasharray="1,5" d="M393.52,-801.335C384.879,-797.16 376.123,-791.223 370.773,-783 280.995,-645.021 417.889,-166.456 306.773,-45 301.536,-39.2759 295.542,-34.4996 289.028,-30.5301"/>
<polygon fill="none" stroke="black" points="290.312,-27.2471 279.845,-25.604 287.003,-33.4156 290.312,-27.2471"/>
</g>
<!-- \\nicklas\\Connect\\Block -->
<g id="node2" class="node"><title>\\nicklas\\Connect\\Block</title>
<polygon fill="none" stroke="black" points="447.773,-774 393.773,-774 393.773,-738 447.773,-738 447.773,-774"/>
<text text-anchor="middle" x="420.773" y="-753.2" font-family="Courier,monospace" font-size="11.00">Block</text>
</g>
<!-- \\nicklas\\Connect\\Block&#45;&gt;\\nicklas\\Connect\\Connect -->
<g id="edge7" class="edge"><title>\\nicklas\\Connect\\Block&#45;&gt;\\nicklas\\Connect\\Connect</title>
<path fill="none" stroke="black" d="M393.356,-747.937C346.949,-733.773 250.491,-704.333 195.368,-687.508"/>
<polygon fill="none" stroke="black" points="196.163,-684.092 185.577,-684.52 194.12,-690.787 196.163,-684.092"/>
</g>
<!-- \\nicklas\\Connect\\Block&#45;&gt;\\Anax\\Common\\AppInjectableInterface -->
<g id="edge8" class="edge"><title>\\nicklas\\Connect\\Block&#45;&gt;\\Anax\\Common\\AppInjectableInterface</title>
<path fill="none" stroke="black" stroke-dasharray="1,5" d="M393.621,-746.328C385.303,-742.124 376.726,-736.427 370.773,-729 307.346,-649.88 337.665,-606.584 306.773,-510 256.846,-353.906 189.974,-169.128 164.668,-99.9661"/>
<polygon fill="none" stroke="black" points="167.834,-98.4337 161.107,-90.2484 161.261,-100.842 167.834,-98.4337"/>
</g>
<!-- \\nicklas\\Connect\\Block&#45;&gt;\\Anax\\Common\\ConfigureInterface -->
<g id="edge9" class="edge"><title>\\nicklas\\Connect\\Block&#45;&gt;\\Anax\\Common\\ConfigureInterface</title>
<path fill="none" stroke="black" stroke-dasharray="1,5" d="M393.55,-747.315C384.912,-743.138 376.151,-737.204 370.773,-729 287.08,-601.322 410.203,-157.287 306.773,-45 301.517,-39.2937 295.507,-34.5312 288.982,-30.5722"/>
<polygon fill="none" stroke="black" points="290.255,-27.2843 279.786,-25.6583 286.956,-33.4581 290.255,-27.2843"/>
</g>
<!-- \\nicklas\\Connect\\Page -->
<g id="node3" class="node"><title>\\nicklas\\Connect\\Page</title>
<polygon fill="none" stroke="black" points="447.773,-720 393.773,-720 393.773,-684 447.773,-684 447.773,-720"/>
<text text-anchor="middle" x="420.773" y="-699.2" font-family="Courier,monospace" font-size="11.00">Page</text>
</g>
<!-- \\nicklas\\Connect\\Page&#45;&gt;\\nicklas\\Connect\\Connect -->
<g id="edge10" class="edge"><title>\\nicklas\\Connect\\Page&#45;&gt;\\nicklas\\Connect\\Connect</title>
<path fill="none" stroke="black" d="M393.356,-699.312C347.045,-694.601 250.891,-684.818 195.711,-679.204"/>
<polygon fill="none" stroke="black" points="195.88,-675.704 185.577,-678.173 195.172,-682.668 195.88,-675.704"/>
</g>
<!-- \\nicklas\\Connect\\Page&#45;&gt;\\Anax\\Common\\AppInjectableInterface -->
<g id="edge11" class="edge"><title>\\nicklas\\Connect\\Page&#45;&gt;\\Anax\\Common\\AppInjectableInterface</title>
<path fill="none" stroke="black" stroke-dasharray="1,5" d="M393.619,-691.99C385.399,-687.783 376.884,-682.17 370.773,-675 360.749,-663.24 204.98,-217.249 164.132,-100"/>
<polygon fill="none" stroke="black" points="167.35,-98.5959 160.755,-90.3035 160.739,-100.898 167.35,-98.5959"/>
</g>
<!-- \\nicklas\\Connect\\Page&#45;&gt;\\Anax\\Common\\ConfigureInterface -->
<g id="edge12" class="edge"><title>\\nicklas\\Connect\\Page&#45;&gt;\\Anax\\Common\\ConfigureInterface</title>
<path fill="none" stroke="black" stroke-dasharray="1,5" d="M393.586,-693.291C384.952,-689.112 376.183,-683.183 370.773,-675 293.16,-557.618 402.522,-148.123 306.773,-45 301.494,-39.3147 295.467,-34.5684 288.929,-30.6216"/>
<polygon fill="none" stroke="black" points="290.189,-27.328 279.717,-25.7221 286.902,-33.5082 290.189,-27.328"/>
</g>
<!-- \\nicklas\\Connect\\Webshop -->
<g id="node4" class="node"><title>\\nicklas\\Connect\\Webshop</title>
<polygon fill="none" stroke="black" points="452.773,-666 388.773,-666 388.773,-630 452.773,-630 452.773,-666"/>
<text text-anchor="middle" x="420.773" y="-645.2" font-family="Courier,monospace" font-size="11.00">Webshop</text>
</g>
<!-- \\nicklas\\Connect\\Webshop&#45;&gt;\\nicklas\\Connect\\Connect -->
<g id="edge13" class="edge"><title>\\nicklas\\Connect\\Webshop&#45;&gt;\\nicklas\\Connect\\Connect</title>
<path fill="none" stroke="black" d="M388.549,-651.177C340.636,-656.051 248.942,-665.38 195.62,-670.805"/>
<polygon fill="none" stroke="black" points="195.085,-667.341 185.491,-671.835 195.794,-674.305 195.085,-667.341"/>
</g>
<!-- \\nicklas\\Connect\\Webshop&#45;&gt;\\Anax\\Common\\AppInjectableInterface -->
<g id="edge14" class="edge"><title>\\nicklas\\Connect\\Webshop&#45;&gt;\\Anax\\Common\\AppInjectableInterface</title>
<path fill="none" stroke="black" stroke-dasharray="1,5" d="M388.649,-635.096C382.112,-631.297 375.712,-626.616 370.773,-621 297.182,-537.316 192.399,-199.389 162.583,-99.769"/>
<polygon fill="none" stroke="black" points="165.915,-98.6934 159.704,-90.1098 159.207,-100.693 165.915,-98.6934"/>
</g>
<!-- \\nicklas\\Connect\\Webshop&#45;&gt;\\Anax\\Common\\ConfigureInterface -->
<g id="edge15" class="edge"><title>\\nicklas\\Connect\\Webshop&#45;&gt;\\Anax\\Common\\ConfigureInterface</title>
<path fill="none" stroke="black" stroke-dasharray="1,5" d="M388.766,-636.715C381.814,-632.773 375.197,-627.623 370.773,-621 299.237,-513.907 394.846,-138.965 306.773,-45 301.467,-39.3396 295.42,-34.6126 288.866,-30.6804"/>
<polygon fill="none" stroke="black" points="290.112,-27.3801 279.636,-25.7981 286.839,-33.5678 290.112,-27.3801"/>
</g>
<!-- \\nicklas\\Connect\\Content -->
<g id="node6" class="node"><title>\\nicklas\\Connect\\Content</title>
<polygon fill="none" stroke="black" points="452.773,-612 388.773,-612 388.773,-576 452.773,-576 452.773,-612"/>
<text text-anchor="middle" x="420.773" y="-591.2" font-family="Courier,monospace" font-size="11.00">Content</text>
</g>
<!-- \\nicklas\\Connect\\Content&#45;&gt;\\nicklas\\Connect\\Connect -->
<g id="edge16" class="edge"><title>\\nicklas\\Connect\\Content&#45;&gt;\\nicklas\\Connect\\Connect</title>
<path fill="none" stroke="black" d="M388.549,-603.53C340.536,-618.184 248.559,-646.257 195.287,-662.517"/>
<polygon fill="none" stroke="black" points="194.034,-659.24 185.491,-665.506 196.077,-665.935 194.034,-659.24"/>
</g>
<!-- \\nicklas\\Connect\\Content&#45;&gt;\\Anax\\Common\\AppInjectableInterface -->
<g id="edge17" class="edge"><title>\\nicklas\\Connect\\Content&#45;&gt;\\Anax\\Common\\AppInjectableInterface</title>
<path fill="none" stroke="black" stroke-dasharray="1,5" d="M388.544,-580.814C382.088,-577.048 375.748,-572.453 370.773,-567 237.975,-421.457 177.416,-181.465 159.959,-100.031"/>
<polygon fill="none" stroke="black" points="163.343,-99.1132 157.866,-90.0439 156.492,-100.549 163.343,-99.1132"/>
</g>
<!-- \\nicklas\\Connect\\Content&#45;&gt;\\Anax\\Common\\ConfigureInterface -->
<g id="edge18" class="edge"><title>\\nicklas\\Connect\\Content&#45;&gt;\\Anax\\Common\\ConfigureInterface</title>
<path fill="none" stroke="black" stroke-dasharray="1,5" d="M388.563,-582.535C381.704,-578.613 375.18,-573.517 370.773,-567 239.842,-373.376 467.582,-214.628 306.773,-45 301.249,-39.1732 294.938,-34.3389 288.1,-30.3447"/>
<polygon fill="none" stroke="black" points="289.664,-27.2135 279.175,-25.7232 286.446,-33.4296 289.664,-27.2135"/>
</g>
<!-- \\nicklas\\Connect\\Admin -->
<g id="node7" class="node"><title>\\nicklas\\Connect\\Admin</title>
<polygon fill="none" stroke="black" points="447.773,-558 393.773,-558 393.773,-522 447.773,-522 447.773,-558"/>
<text text-anchor="middle" x="420.773" y="-537.2" font-family="Courier,monospace" font-size="11.00">Admin</text>
</g>
<!-- \\nicklas\\Connect\\Admin&#45;&gt;\\nicklas\\Connect\\Connect -->
<g id="edge19" class="edge"><title>\\nicklas\\Connect\\Admin&#45;&gt;\\nicklas\\Connect\\Connect</title>
<path fill="none" stroke="black" d="M393.356,-553.438C346.756,-577.143 249.69,-626.52 194.684,-654.501"/>
<polygon fill="none" stroke="black" points="192.903,-651.48 185.577,-659.133 196.077,-657.719 192.903,-651.48"/>
</g>
<!-- \\nicklas\\Connect\\Admin&#45;&gt;\\Anax\\Common\\AppInjectableInterface -->
<g id="edge20" class="edge"><title>\\nicklas\\Connect\\Admin&#45;&gt;\\Anax\\Common\\AppInjectableInterface</title>
<path fill="none" stroke="black" stroke-dasharray="1,5" d="M393.591,-527.63C385.559,-522.932 377.163,-516.997 370.773,-510 252.5,-380.507 184.118,-174.449 162.193,-99.9925"/>
<polygon fill="none" stroke="black" points="165.552,-99.0117 159.407,-90.3814 158.829,-100.961 165.552,-99.0117"/>
</g>
<!-- \\nicklas\\Connect\\Admin&#45;&gt;\\Anax\\Common\\ConfigureInterface -->
<g id="edge21" class="edge"><title>\\nicklas\\Connect\\Admin&#45;&gt;\\Anax\\Common\\ConfigureInterface</title>
<path fill="none" stroke="black" stroke-dasharray="1,5" d="M393.699,-529.597C385.076,-524.88 376.286,-518.432 370.773,-510 256.604,-335.398 451.413,-195.331 306.773,-45 301.206,-39.2142 294.863,-34.4113 287.999,-30.4406"/>
<polygon fill="none" stroke="black" points="289.542,-27.2984 279.048,-25.8448 286.345,-33.5257 289.542,-27.2984"/>
</g>
<!-- \\nicklas\\Navbar\\Navbar -->
<g id="node8" class="node"><title>\\nicklas\\Navbar\\Navbar</title>
<polygon fill="none" stroke="black" points="449.273,-478 392.273,-478 392.273,-442 449.273,-442 449.273,-478"/>
<text text-anchor="middle" x="420.773" y="-457.2" font-family="Courier,monospace" font-size="11.00">Navbar</text>
</g>
<!-- \\nicklas\\Navbar\\Navbar&#45;&gt;\\Anax\\Common\\AppInjectableInterface -->
<g id="edge4" class="edge"><title>\\nicklas\\Navbar\\Navbar&#45;&gt;\\Anax\\Common\\AppInjectableInterface</title>
<path fill="none" stroke="black" stroke-dasharray="1,5" d="M392.158,-446.24C384.686,-441.715 376.962,-436.224 370.773,-430 267.485,-326.122 192.625,-163.684 165.519,-99.4584"/>
<polygon fill="none" stroke="black" points="168.661,-97.9 161.581,-90.0179 162.2,-100.595 168.661,-97.9"/>
</g>
<!-- \\nicklas\\Navbar\\Navbar&#45;&gt;\\Anax\\Common\\ConfigureInterface -->
<g id="edge5" class="edge"><title>\\nicklas\\Navbar\\Navbar&#45;&gt;\\Anax\\Common\\ConfigureInterface</title>
<path fill="none" stroke="black" stroke-dasharray="1,5" d="M392.036,-448.505C384.012,-443.885 376.013,-437.775 370.773,-430 273.824,-286.163 428.773,-168.305 306.773,-45 301.059,-39.2254 294.57,-34.4383 287.567,-30.4858"/>
<polygon fill="none" stroke="black" points="288.952,-27.2646 278.443,-25.9142 285.816,-33.523 288.952,-27.2646"/>
</g>
<!-- \\nicklas\\Textfilter\\Textfilter -->
<g id="node9" class="node"><title>\\nicklas\\Textfilter\\Textfilter</title>
<polygon fill="none" stroke="black" points="462.773,-398 378.773,-398 378.773,-362 462.773,-362 462.773,-398"/>
<text text-anchor="middle" x="420.773" y="-377.2" font-family="Courier,monospace" font-size="11.00">Textfilter</text>
</g>
<!-- \\nicklas\\Session\\Session -->
<g id="node10" class="node"><title>\\nicklas\\Session\\Session</title>
<polygon fill="none" stroke="black" points="452.773,-318 388.773,-318 388.773,-282 452.773,-282 452.773,-318"/>
<text text-anchor="middle" x="420.773" y="-297.2" font-family="Courier,monospace" font-size="11.00">Session</text>
</g>
<!-- \\nicklas\\Session\\Session&#45;&gt;\\Anax\\Common\\ConfigureInterface -->
<g id="edge6" class="edge"><title>\\nicklas\\Session\\Session&#45;&gt;\\Anax\\Common\\ConfigureInterface</title>
<path fill="none" stroke="black" stroke-dasharray="1,5" d="M388.724,-285.809C382.027,-281.536 375.537,-276.277 370.773,-270 307.914,-187.188 383.932,-114.681 306.773,-45 300.395,-39.2403 293.232,-34.4984 285.58,-30.6099"/>
<polygon fill="none" stroke="black" points="286.942,-27.3841 276.39,-26.4272 284.042,-33.7553 286.942,-27.3841"/>
</g>
<!-- \\nicklas\\App\\App -->
<g id="node11" class="node"><title>\\nicklas\\App\\App</title>
<polygon fill="none" stroke="black" points="447.773,-238 393.773,-238 393.773,-202 447.773,-202 447.773,-238"/>
<text text-anchor="middle" x="420.773" y="-217.2" font-family="Courier,monospace" font-size="11.00">App</text>
</g>
<!-- \\nicklas\\Calendar\\Calendar -->
<g id="node12" class="node"><title>\\nicklas\\Calendar\\Calendar</title>
<polygon fill="none" stroke="black" points="456.273,-158 385.273,-158 385.273,-122 456.273,-122 456.273,-158"/>
<text text-anchor="middle" x="420.773" y="-137.2" font-family="Courier,monospace" font-size="11.00">Calendar</text>
</g>
</g>
</svg>
